<svg width="835" height="758" viewBox="0 0 835 758" fill="none" xmlns="http://www.w3.org/2000/svg">
<path d="M361.176 560.559H285.785L247.651 629.133L285.785 698.168H361.176L398.872 629.133L361.176 560.559Z" fill="#181C21"/>
<path d="M228.365 69.4948H152.974L114.84 138.529L152.974 207.103H228.365L266.499 138.529L228.365 69.4948Z" fill="#181C21"/>
<path d="M341.89 276.138H266.061L228.365 344.712L266.061 413.746H341.89L379.586 344.712L341.89 276.138Z" fill="#181C21"/>
<path d="M341.89 0.92041H266.061L228.365 69.4946L266.061 138.529H341.89L379.586 69.4946L341.89 0.92041Z" fill="#191E24"/>
<path d="M114.402 0.92041H38.5726L0.877075 69.4946L38.5726 138.529H114.402L152.098 69.4946L114.402 0.92041Z" fill="#181C21"/>
<path d="M114.402 138.529H38.5726L0.877075 207.103L38.5726 276.138H114.402L152.098 207.103L114.402 138.529Z" fill="#181C21"/>
<path d="M114.402 276.138H38.5726L0.877075 344.712L38.5726 413.746H114.402L152.098 344.712L114.402 276.138Z" fill="#181C21"/>
<path d="M228.365 207.103H152.974L114.84 276.138L152.974 344.712H228.365L266.499 276.138L228.365 207.103Z" fill="#191E24"/>
<path d="M455.415 69.4948H380.024L342.328 138.529L380.024 207.103H455.415L493.549 138.529L455.415 69.4948Z" fill="#181C21"/>
<path d="M568.94 138.529H493.11L455.415 207.103L493.11 276.138H568.94L606.635 207.103L568.94 138.529Z" fill="#181C21"/>
<path d="M568.94 276.138H493.11L455.415 344.712L493.11 413.746H568.94L606.635 344.712L568.94 276.138Z" fill="#181C21"/>
<path d="M568.94 0.92041H493.11L455.415 69.4946L493.11 138.529H568.94L606.635 69.4946L568.94 0.92041Z" fill="#181C21"/>
<path d="M455.415 207.103H380.024L342.328 276.138L380.024 344.712H455.415L493.549 276.138L455.415 207.103Z" fill="#181C21"/>
<path d="M682.465 69.4948H607.073L569.378 138.529L607.073 207.103H682.465L720.598 138.529L682.465 69.4948Z" fill="#181C21"/>
<path d="M795.99 138.529H720.599L682.465 207.103L720.599 276.138H795.99L833.685 207.103L795.99 138.529Z" fill="#191E24"/>
<path d="M795.99 276.138H720.599L682.465 344.712L720.599 413.746H795.99L833.685 344.712L795.99 276.138Z" fill="#181C21"/>
<path d="M795.99 0.92041H720.599L682.465 69.4946L720.599 138.529H795.99L833.685 69.4946L795.99 0.92041Z" fill="#181C21"/>
<path d="M682.465 207.103H607.073L569.378 276.138L607.073 344.712H682.465L720.598 276.138L682.465 207.103Z" fill="#191E24"/>
<path d="M228.365 482.32H152.974L114.84 551.354L152.974 619.929H228.365L266.499 551.354L228.365 482.32Z" fill="#181C21"/>
<path d="M341.89 413.746H266.061L228.365 482.32L266.061 551.355H341.89L379.586 482.32L341.89 413.746Z" fill="#181C21"/>
<path d="M114.402 413.746H38.5726L0.877075 482.32L38.5726 551.355H114.402L152.098 482.32L114.402 413.746Z" fill="#191E24"/>
<path d="M114.402 551.354H38.5726L0.877075 619.929L38.5726 688.503H114.402L152.098 619.929L114.402 551.354Z" fill="#191E24"/>
<path d="M228.365 619.929H152.974L114.84 688.503L152.974 757.537H228.365L266.499 688.503L228.365 619.929Z" fill="#181C21"/>
<path d="M455.415 482.32H380.024L342.328 551.354L380.024 619.929H455.415L493.549 551.354L455.415 482.32Z" fill="#181C21"/>
<path d="M568.94 413.746H493.11L455.415 482.32L493.11 551.355H568.94L606.635 482.32L568.94 413.746Z" fill="#181C21"/>
<path d="M682.465 482.32H607.073L569.378 551.354L607.073 619.929H682.465L720.598 551.354L682.465 482.32Z" fill="#181C21"/>
<path d="M228.365 344.712H152.974L114.84 413.746L152.974 482.32H228.365L266.499 413.746L228.365 344.712Z" fill="#181C21"/>
<path d="M455.415 344.712H380.024L342.328 413.746L380.024 482.32H455.415L493.549 413.746L455.415 344.712Z" fill="#191E24"/>
<path d="M228.803 208.024H152.536L113.963 138.529L152.536 69.0344H229.242L267.375 138.529L228.803 208.024ZM153.412 206.643H228.365L265.622 138.529L227.927 70.4151H153.412L115.717 138.529L153.412 206.643Z" fill="black"/>
<path d="M342.328 277.058H265.622L227.488 207.103L265.622 137.609H342.328L380.462 207.103L342.328 277.058ZM266.499 275.217H341.452L378.709 207.103L341.452 139.45H266.499L229.242 207.563L266.499 275.217Z" fill="black"/>
<path d="M342.328 414.206H265.622L227.488 344.712L265.622 275.217H342.328L380.462 344.712L342.328 414.206ZM266.499 412.826H341.452L378.709 344.712L341.452 277.058H266.499L229.242 344.712L266.499 412.826Z" fill="black"/>
<path d="M342.328 139.449H265.622L227.488 69.4946L265.622 0H342.328L380.462 69.4946L342.328 139.449ZM266.499 137.609H341.452L378.709 69.4946L341.452 1.84091H266.499L229.242 69.4946L266.499 137.609Z" fill="black"/>
<path d="M114.84 139.449H38.1339L0 69.9548L38.1339 0.460205H114.84L152.974 69.4946L114.84 139.449ZM39.0105 137.609H113.963L151.22 69.4946L113.963 1.84089H39.0105L1.75328 69.9548L39.0105 137.609Z" fill="black"/>
<path d="M114.84 277.058H38.1339L0 207.563L38.1339 137.609H114.84L152.974 207.103L114.84 277.058ZM39.0105 275.217H113.963L151.22 207.103L113.963 139.45H39.0105L1.75328 207.563L39.0105 275.217Z" fill="black"/>
<path d="M114.84 414.206H38.1339L0 344.712L38.1339 275.217H114.84L152.974 344.712L114.84 414.206ZM39.0105 412.826H113.963L151.22 344.712L113.963 277.058H39.0105L1.75328 344.712L39.0105 412.826Z" fill="black"/>
<path d="M228.803 345.632H152.536L113.963 276.138L152.536 206.643H229.242L267.375 276.138L228.803 345.632ZM153.412 344.252H228.365L265.622 276.138L228.365 208.024H153.412L115.717 276.138L153.412 344.252Z" fill="black"/>
<path d="M455.853 208.024H379.586L341.452 138.529L379.586 69.0344H456.292L494.425 138.529L455.853 208.024ZM380.462 206.643H455.415L492.672 138.529L454.977 70.4151H380.462L343.205 138.529L380.462 206.643Z" fill="black"/>
<path d="M569.378 277.058H492.672L454.538 207.563L492.672 137.609H569.378L607.512 207.103L569.378 277.058ZM493.548 275.217H568.501L605.758 207.103L568.501 138.989H493.548L456.291 207.103L493.548 275.217Z" fill="black"/>
<path d="M569.378 414.206H492.672L454.538 344.712L492.672 275.217H569.378L607.512 344.712L569.378 414.206ZM493.548 412.826H568.501L605.758 344.712L568.501 276.598H493.548L456.291 344.712L493.548 412.826Z" fill="black"/>
<path d="M569.378 139.449H492.672L454.538 69.4946L492.672 0H569.378L607.512 69.4946L569.378 139.449ZM493.548 137.609H568.501L605.758 69.4946L568.501 1.38068H493.548L456.291 69.4946L493.548 137.609Z" fill="black"/>
<path d="M455.853 345.632H379.586L341.452 276.138L379.586 206.643H456.292L494.425 276.138L455.853 345.632ZM380.462 344.252H455.415L492.672 276.138L455.415 208.024H380.462L343.205 276.138L380.462 344.252Z" fill="black"/>
<path d="M682.903 208.024H606.197L568.063 138.529L606.197 69.0344H682.903L721.037 138.529L682.903 208.024ZM607.512 206.643H682.465L719.722 138.529L682.465 70.4151H607.512L570.255 138.529L607.512 206.643Z" fill="black"/>
<path d="M796.428 277.058H719.722L681.588 207.563L720.16 137.609H796.866L835 207.103L796.428 277.058ZM721.037 275.217H795.989L833.247 207.103L795.989 138.989H721.037L683.341 207.103L721.037 275.217Z" fill="black"/>
<path d="M796.428 414.206H719.722L681.588 344.712L719.722 275.217H796.428L834.562 344.712L796.428 414.206ZM721.037 412.826H795.989L833.247 344.712L795.989 276.598H721.037L683.341 344.712L721.037 412.826Z" fill="black"/>
<path d="M796.428 139.449H719.722L681.588 69.9548L719.722 0.460205H796.428L834.562 69.9548L796.428 139.449ZM721.037 137.609H795.989L833.247 69.4946L795.989 1.38066H721.037L683.341 69.4946L721.037 137.609Z" fill="black"/>
<path d="M682.903 345.632H606.197L568.063 276.138L606.197 206.643H682.903L721.037 276.138L682.903 345.632ZM607.512 344.252H682.465L719.722 276.138L682.465 208.024H607.512L570.255 276.138L607.512 344.252Z" fill="black"/>
<path d="M228.803 620.849H152.536L113.963 551.355L152.097 481.86H228.803L266.937 551.355L228.803 620.849ZM153.412 619.008H228.365L265.622 550.894L228.365 482.78H153.412L115.717 551.355L153.412 619.008Z" fill="black"/>
<path d="M342.328 551.815H265.622L227.488 482.32L265.622 412.826H342.328L380.462 482.32L342.328 551.815ZM266.499 550.434H341.452L378.709 482.32L341.452 414.206H266.499L229.242 482.32L266.499 550.434Z" fill="black"/>
<path d="M114.84 551.815H38.1339L0 482.32L38.1339 412.826H114.84L152.974 482.32L114.84 551.815ZM39.0105 550.434H113.963L151.22 482.32L113.963 414.206H39.0105L1.75328 482.32L39.0105 550.434Z" fill="black"/>
<path d="M114.84 689.423H38.1339L0 619.929L38.1339 550.434H114.84L152.974 619.929L114.84 689.423ZM39.0105 688.043H113.963L151.22 619.929L113.963 551.815H39.0105L1.75328 619.929L39.0105 688.043Z" fill="black"/>
<path d="M455.853 620.849H379.586L341.452 551.355L379.586 481.86H456.292L494.425 551.355L455.853 620.849ZM380.462 619.008H455.415L492.672 550.894L455.415 482.78H380.462L343.205 550.894L380.462 619.008Z" fill="black"/>
<path d="M569.378 551.815H492.672L454.538 482.32L492.672 412.826H569.378L607.512 482.32L569.378 551.815ZM493.548 550.434H568.501L605.758 482.32L568.501 414.206H493.548L456.291 482.32L493.548 550.434Z" fill="black"/>
<path d="M682.903 620.849H606.197L568.063 551.355L606.197 481.86H682.903L721.037 551.355L682.903 620.849ZM607.512 619.008H682.465L719.722 550.894L682.465 482.78H607.512L570.255 550.894L607.512 619.008Z" fill="black"/>
<path d="M228.803 483.241H152.536L113.963 413.746L152.097 344.251H228.803L267.375 413.746L228.803 483.241ZM153.412 481.4H228.365L265.622 413.746L228.365 345.632H153.412L115.717 413.746L153.412 481.4Z" fill="black"/>
<path d="M455.853 483.241H379.586L341.452 413.746L379.586 344.251H456.292L494.425 413.746L455.853 483.241ZM380.462 481.4H455.415L492.672 413.746L455.415 345.632H380.462L343.205 413.746L380.462 481.4Z" fill="black"/>
<path d="M682.903 483.241H606.197L568.501 413.746L606.635 344.251H683.341L721.475 413.746L682.903 483.241ZM607.511 481.4H682.464L719.721 413.286L682.464 345.172H607.511L570.254 413.746L607.511 481.4Z" fill="black"/>
<path d="M692.985 462.99H617.155L579.46 393.956L617.155 325.382H692.985L730.68 393.956L692.985 462.99Z" fill="#12161A"/>
<path d="M693.861 464.371H616.278L577.706 393.956L616.278 323.541H693.861L732.433 393.956L693.861 464.371ZM618.032 461.15H692.108L728.927 393.956L692.108 326.763H618.032L581.213 393.956L618.032 461.15Z" fill="black"/>
</svg>
